<svg width="157" height="32" viewBox="0 0 157 32" fill="none" xmlns="http://www.w3.org/2000/svg">
<path d="M45.0021 17.3406C45.8065 16.6153 46.3501 15.5384 46.6545 14.0878C46.7415 13.5823 46.8067 13.0329 46.8067 12.4615C46.8067 11.8241 46.6762 11.1428 46.4153 10.4615C46.0892 9.60431 45.6543 9.14278 45.1325 9.03289C44.3498 8.87904 43.5888 9.3186 42.8713 10.3955C42.2843 11.2307 41.9147 12.1098 41.719 13.0109C41.6103 13.5164 41.5668 14.0659 41.5668 14.6153C41.5668 15.2527 41.6973 15.934 41.9582 16.6153C42.2843 17.4724 42.7192 17.934 43.241 18.0439C43.7845 18.1538 44.3716 17.912 45.0021 17.3406Z" fill="#C4C4C4"/>
<path d="M33.0226 14.0878C32.7182 15.5384 32.1746 16.6153 31.3702 17.3406C30.7396 17.912 30.1526 18.1538 29.6091 18.0439C29.0872 17.934 28.6524 17.4724 28.3263 16.6153C28.0654 15.934 27.9349 15.2527 27.9349 14.6153C27.9349 14.0659 27.9784 13.5164 28.0871 13.0109C28.2828 12.1098 28.6524 11.2307 29.2394 10.3955C29.9569 9.3186 30.7179 8.87904 31.5006 9.03289C32.0224 9.14278 32.4573 9.60431 32.7834 10.4615C33.0443 11.1428 33.1748 11.8241 33.1748 12.4615C33.1748 13.0329 33.1313 13.5823 33.0226 14.0878Z" fill="#C4C4C4"/>
<path fill-rule="evenodd" clip-rule="evenodd" d="M4.93171 0H48.2203C50.9598 0 53.1775 2.24176 53.1775 5.01099V21.7143C53.1775 24.4835 50.9598 26.7253 48.2203 26.7253H32.6964L34.8271 32L25.4563 26.7253H4.95346C2.21395 26.7253 -0.00374774 24.4835 -0.00374774 21.7143V5.01099C-0.0254899 2.26373 2.19221 0 4.93171 0ZM2.64882 4.54934C2.95321 4.13175 3.4098 3.91197 4.01857 3.86802C5.12742 3.7801 5.75794 4.30758 5.91014 5.45044C6.58415 10.0438 7.32338 13.934 8.1061 17.1208L12.8676 7.95593C13.3025 7.12076 13.846 6.6812 14.4983 6.63725C15.4549 6.57131 16.042 7.1867 16.2811 8.4834C16.8247 11.4065 17.5204 13.89 18.3466 15.9999C18.9119 10.4175 19.8686 6.39549 21.2166 3.91197C21.5427 3.29659 22.0211 2.9889 22.6516 2.94494C23.1516 2.90099 23.6082 3.05483 24.0213 3.3845C24.4344 3.71417 24.6519 4.13175 24.6953 4.63725C24.7171 5.03285 24.6519 5.36253 24.4779 5.6922C23.63 7.27461 22.9342 9.93396 22.3689 13.6263C21.8254 17.2087 21.6297 19.9999 21.7601 21.9999C21.8036 22.5493 21.7167 23.0329 21.4992 23.4504C21.2383 23.934 20.847 24.1977 20.3469 24.2416C19.7816 24.2856 19.1946 24.0219 18.6293 23.4285C16.6073 21.3405 14.9983 18.2197 13.8243 14.0658C12.411 16.879 11.3674 18.9889 10.6934 20.3955C9.41062 22.879 8.32352 24.1537 7.41035 24.2197C6.82331 24.2636 6.32324 23.7581 5.8884 22.7032C4.77955 19.8241 3.58373 14.2636 2.30095 6.02187C2.23572 5.45044 2.34443 4.94494 2.64882 4.54934ZM49.394 7.99992C48.6113 6.61531 47.4589 5.78014 45.9152 5.45047C45.5021 5.36256 45.1108 5.3186 44.7412 5.3186C42.6539 5.3186 40.958 6.4175 39.6318 8.6153C38.5012 10.4834 37.9359 12.5494 37.9359 14.8131C37.9359 16.5054 38.2838 17.956 38.9795 19.1648C39.7622 20.5494 40.9146 21.3845 42.4582 21.7142C42.8713 21.8021 43.2627 21.8461 43.6323 21.8461C45.7413 21.8461 47.4372 20.7472 48.7417 18.5494C49.8723 16.6593 50.4376 14.5933 50.4376 12.3296C50.4376 10.6153 50.0897 9.18674 49.394 7.99992ZM32.2833 5.45047C33.8053 5.78014 34.9794 6.61531 35.7621 7.99992C36.4578 9.18674 36.8057 10.6153 36.8057 12.3296C36.8057 14.5933 36.2404 16.6593 35.1098 18.5494C33.8053 20.7472 32.1094 21.8461 30.0004 21.8461C29.6308 21.8461 29.2394 21.8021 28.8263 21.7142C27.2827 21.3845 26.1303 20.5494 25.3476 19.1648C24.6519 17.956 24.304 16.5054 24.304 14.8131C24.304 12.5494 24.8693 10.4834 25.9999 8.6153C27.3261 6.4175 29.022 5.3186 31.1093 5.3186C31.4789 5.3186 31.8702 5.36256 32.2833 5.45047Z" fill="#C4C4C4"/>
<path d="M56.504 13.3409C56.504 11.0991 57.2215 9.25296 58.6782 7.80241C60.135 6.35186 61.9613 5.62658 64.179 5.64856C65.0269 5.64856 65.8314 5.73648 66.5489 5.93428V9.49472C65.7662 9.27494 65.0487 9.16505 64.3747 9.16505C63.3311 9.16505 62.4831 9.56065 61.7874 10.3738C61.1134 11.165 60.7655 12.198 60.7655 13.4508C60.7655 14.7914 61.1133 15.8464 61.8091 16.6376C62.5048 17.4068 63.418 17.8024 64.5703 17.8024C65.1356 17.8024 65.7879 17.6925 66.5489 17.4727V21.0332C65.7227 21.2749 64.9617 21.3848 64.2877 21.3848C61.9613 21.3848 60.0915 20.6376 58.6565 19.165C57.2215 17.6925 56.504 15.7365 56.504 13.3409Z" fill="#C4C4C4"/>
<path fill-rule="evenodd" clip-rule="evenodd" d="M69.071 7.64856C70.2016 6.3079 71.767 5.62658 73.7673 5.62658C75.898 5.62658 77.5286 6.3079 78.681 7.64856C79.8116 9.0112 80.3769 10.9453 80.3769 13.4508C80.3769 15.9563 79.8116 17.9123 78.7027 19.2969C77.5939 20.6815 76.0067 21.3848 73.9412 21.3848C71.8105 21.3848 70.1798 20.6815 69.071 19.2969C67.9621 17.9123 67.3968 15.9123 67.3968 13.2969C67.3968 10.8793 67.9404 8.98922 69.071 7.64856ZM73.7673 17.9782C74.5065 17.9782 75.0935 17.6705 75.4849 17.0552C75.8763 16.4398 76.0937 15.209 76.1154 13.4068C76.1154 10.4837 75.3327 9.03318 73.8107 9.03318C72.354 9.03318 71.6365 10.4617 71.6365 13.3409C71.6365 15.209 71.8105 16.4398 72.1801 17.0552C72.5497 17.6705 73.0715 17.9782 73.7673 17.9782Z" fill="#C4C4C4"/>
<path d="M90.3348 9.40681L91.1175 6.04417H96.2921L98.2924 21.0112H94.3353L93.2699 10.7255L90.7913 21.0112H88.0953L85.508 10.7035L84.4861 21.0112H80.703L82.5946 6.04417H87.6387C88.3562 9.27494 88.9215 12.0442 89.3346 14.3738L89.7695 12.0442C89.9434 11.1431 90.1391 10.2639 90.3348 9.40681Z" fill="#C4C4C4"/>
<path d="M108.446 9.40681L109.229 6.04417H114.382L116.382 21.0112H112.425L111.359 10.7255L108.903 21.0112H106.207L103.619 10.7035L102.597 21.0112H98.8142L100.706 6.04417H105.75C106.467 9.27494 107.033 12.0442 107.446 14.3738L107.881 12.0442C108.055 11.1431 108.25 10.2639 108.446 9.40681Z" fill="#C4C4C4"/>
<path d="M125.079 15.0991H121.535V17.8464H125.644V21.0332H117.534V6.06614H125.622V9.25296H121.535V12.0002H125.079V15.0991Z" fill="#C4C4C4"/>
<path fill-rule="evenodd" clip-rule="evenodd" d="M137.537 10.6156C137.537 11.3409 137.319 12.0442 136.906 12.7255C136.493 13.4068 135.885 13.9123 135.124 14.264L138.32 21.0112H134.102L130.862 14.198H130.797V21.0112H126.796V6.04417H131.449C133.319 6.04417 134.819 6.46175 135.906 7.27493C136.993 8.08812 137.537 9.209 137.537 10.6156ZM130.775 8.92329V12.4837C132.536 12.4618 133.428 11.9343 133.428 10.9013C133.428 10.198 133.232 9.7145 132.819 9.40681C132.406 9.09911 131.732 8.94526 130.775 8.92329Z" fill="#C4C4C4"/>
<path d="M137.711 13.3409C137.711 11.0991 138.428 9.25296 139.885 7.80241C141.342 6.35186 143.19 5.62658 145.386 5.64856C146.234 5.64856 147.038 5.73648 147.756 5.93428V9.49472C146.973 9.27494 146.255 9.16505 145.581 9.16505C144.538 9.16505 143.69 9.56065 142.994 10.3738C142.32 11.165 141.972 12.198 141.972 13.4508C141.972 14.7914 142.32 15.8464 143.016 16.6376C143.712 17.4068 144.625 17.8024 145.777 17.8024C146.342 17.8024 146.995 17.6925 147.756 17.4727V21.0332C146.929 21.2749 146.169 21.3848 145.495 21.3848C143.168 21.3848 141.298 20.6376 139.863 19.165C138.428 17.6925 137.711 15.7365 137.711 13.3409Z" fill="#C4C4C4"/>
<path d="M152.865 15.0771V17.8244H156.996V21.0112H148.886V6.04417H156.974V9.23098H152.865V11.9782H156.409V15.0771H152.865Z" fill="#C4C4C4"/>
</svg>
