<svg width="117" height="34" viewBox="0 0 117 34" fill="none" xmlns="http://www.w3.org/2000/svg">
<g filter="url(#filter0_d_2_713)">
<mask id="path-1-outside-1_2_713" maskUnits="userSpaceOnUse" x="4" y="-7.62939e-06" width="109" height="26" fill="black">
<rect fill="white" x="4" y="-7.62939e-06" width="109" height="26"/>
<path d="M5 24.6163V1.76743H11.9941C17.0513 1.76743 19.5798 3.74418 19.5798 7.69767C19.5798 8.97674 19.2551 10.0814 18.6055 11.0116C17.956 11.9419 17.0745 12.5232 15.961 12.7558C17.2601 12.9419 18.2692 13.5116 18.9883 14.4651C19.7306 15.3953 20.1134 16.6163 20.1366 18.1279C20.1366 22.4535 17.318 24.6163 11.681 24.6163H5ZM12.2029 21.4767C13.734 21.4767 14.8243 21.1395 15.4738 20.4651C16.1234 19.7907 16.4481 18.8953 16.4481 17.7791C16.4481 16.6395 16.0886 15.8139 15.3694 15.3023C14.6735 14.7907 13.56 14.5349 12.0289 14.5349H8.61886V21.4767H12.2029ZM16.0306 7.97674C16.0306 5.93023 14.7663 4.90697 12.2377 4.90697H8.61886V11.3953H11.9593C14.6735 11.3953 16.0306 10.2558 16.0306 7.97674Z"/>
<path d="M22.5376 16.3488C22.5376 13.5349 23.1639 11.407 24.4166 9.96511C25.6693 8.49999 27.4091 7.76744 29.6361 7.76744C31.8631 7.76744 33.5797 8.43022 34.786 9.75581C36.0155 11.0581 36.6534 12.9767 36.6998 15.5116L36.5607 18.093H26.4C26.6088 20.6046 27.8615 21.8605 30.158 21.8605C31.7587 21.8605 33.4521 21.5698 35.2384 20.9884L35.9691 24.0232C35.2268 24.2791 34.2641 24.5 33.081 24.686C31.8979 24.8953 30.9236 25 30.158 25C25.0777 25 22.5376 22.1163 22.5376 16.3488ZM29.7753 11.0116C28.685 11.0116 27.8615 11.3372 27.3047 11.9884C26.7712 12.6163 26.4696 13.6744 26.4 15.1628H32.8374C32.8374 12.3953 31.8167 11.0116 29.7753 11.0116Z"/>
<path d="M39.0312 23.8488L39.7967 20.6744C42.0005 21.3721 43.752 21.7209 45.0511 21.7209C46.3501 21.7209 47.2317 21.593 47.6956 21.3372C48.1596 21.1046 48.3915 20.686 48.3915 20.0814C48.3915 19.4767 48.1828 19.0465 47.7652 18.7907C47.3476 18.5349 46.5589 18.2674 45.399 17.9884C43.1024 17.4302 41.5018 16.8139 40.5971 16.1395C39.6924 15.4419 39.24 14.3139 39.24 12.7558C39.24 9.43023 41.3742 7.76744 45.6426 7.76744C47.4752 7.76744 49.5978 8.06976 52.0104 8.67441L51.3493 11.9884C49.0527 11.3372 47.2781 11.0116 46.0254 11.0116C44.7727 11.0116 43.926 11.1279 43.4852 11.3605C43.0676 11.5698 42.8589 11.9419 42.8589 12.4767C42.8589 13.0116 43.0676 13.407 43.4852 13.6628C43.926 13.8953 45.0395 14.2558 46.8257 14.7442C48.6119 15.2325 49.9226 15.8023 50.7577 16.4535C51.5928 17.0814 52.0104 18.1628 52.0104 19.6977C52.0104 23.2093 49.853 24.9651 45.5382 24.9651C43.52 24.9651 41.351 24.593 39.0312 23.8488Z"/>
<path d="M58.2738 8.0465L58.3434 9.05813C60.2224 8.19767 61.6955 7.76744 62.7626 7.76744C64.6416 7.76744 66.0219 8.32557 66.9034 9.44185C67.8081 10.5349 68.2605 12.2558 68.2605 14.6046V24.6163H64.6764V14.7093C64.6764 13.593 64.4792 12.7209 64.0849 12.093C63.6905 11.4651 63.0758 11.1512 62.2407 11.1512C61.4055 11.1512 60.1181 11.5581 58.3782 12.3721V24.6163H54.7941V8.0465H58.2738Z"/>
<path d="M70.9746 24.6163V21.407H76.1594V11.2558H71.253V8.0465H79.7434V21.407H84.6498V24.6163H70.9746ZM77.76 5.63953C77.0641 5.63953 76.5073 5.43022 76.0898 5.01162C75.6954 4.56976 75.4982 3.99999 75.4982 3.30232C75.4982 2.60464 75.707 2.0465 76.1246 1.6279C76.5421 1.20929 77.0989 0.999992 77.7948 0.999992C78.5139 0.999992 79.0591 1.20929 79.4302 1.6279C79.8246 2.02325 80.0218 2.58139 80.0218 3.30232C80.0218 4.02325 79.8246 4.59302 79.4302 5.01162C79.0359 5.43022 78.4791 5.63953 77.76 5.63953Z"/>
<path d="M87.5379 24.6163V1.4186H91.122V14.7093L93.4185 14.4651C94.7176 12.7907 95.8543 10.9767 96.8286 9.02325L97.3158 8.0465H101.213C99.7516 11.1395 98.1277 13.7209 96.3415 15.7907C97.8261 17.907 99.3224 20.407 100.83 23.2907L101.526 24.6163H97.455C96.3183 22.1512 95.0192 19.7907 93.5577 17.5349L91.122 17.7791V24.6163H87.5379Z"/>
<path d="M106.954 24.6163V19.5581H112V24.6163H106.954Z"/>
</mask>
<path d="M5 24.6163V1.76743H11.9941C17.0513 1.76743 19.5798 3.74418 19.5798 7.69767C19.5798 8.97674 19.2551 10.0814 18.6055 11.0116C17.956 11.9419 17.0745 12.5232 15.961 12.7558C17.2601 12.9419 18.2692 13.5116 18.9883 14.4651C19.7306 15.3953 20.1134 16.6163 20.1366 18.1279C20.1366 22.4535 17.318 24.6163 11.681 24.6163H5ZM12.2029 21.4767C13.734 21.4767 14.8243 21.1395 15.4738 20.4651C16.1234 19.7907 16.4481 18.8953 16.4481 17.7791C16.4481 16.6395 16.0886 15.8139 15.3694 15.3023C14.6735 14.7907 13.56 14.5349 12.0289 14.5349H8.61886V21.4767H12.2029ZM16.0306 7.97674C16.0306 5.93023 14.7663 4.90697 12.2377 4.90697H8.61886V11.3953H11.9593C14.6735 11.3953 16.0306 10.2558 16.0306 7.97674Z" fill="#000228"/>
<path d="M22.5376 16.3488C22.5376 13.5349 23.1639 11.407 24.4166 9.96511C25.6693 8.49999 27.4091 7.76744 29.6361 7.76744C31.8631 7.76744 33.5797 8.43022 34.786 9.75581C36.0155 11.0581 36.6534 12.9767 36.6998 15.5116L36.5607 18.093H26.4C26.6088 20.6046 27.8615 21.8605 30.158 21.8605C31.7587 21.8605 33.4521 21.5698 35.2384 20.9884L35.9691 24.0232C35.2268 24.2791 34.2641 24.5 33.081 24.686C31.8979 24.8953 30.9236 25 30.158 25C25.0777 25 22.5376 22.1163 22.5376 16.3488ZM29.7753 11.0116C28.685 11.0116 27.8615 11.3372 27.3047 11.9884C26.7712 12.6163 26.4696 13.6744 26.4 15.1628H32.8374C32.8374 12.3953 31.8167 11.0116 29.7753 11.0116Z" fill="#000228"/>
<path d="M39.0312 23.8488L39.7967 20.6744C42.0005 21.3721 43.752 21.7209 45.0511 21.7209C46.3501 21.7209 47.2317 21.593 47.6956 21.3372C48.1596 21.1046 48.3915 20.686 48.3915 20.0814C48.3915 19.4767 48.1828 19.0465 47.7652 18.7907C47.3476 18.5349 46.5589 18.2674 45.399 17.9884C43.1024 17.4302 41.5018 16.8139 40.5971 16.1395C39.6924 15.4419 39.24 14.3139 39.24 12.7558C39.24 9.43023 41.3742 7.76744 45.6426 7.76744C47.4752 7.76744 49.5978 8.06976 52.0104 8.67441L51.3493 11.9884C49.0527 11.3372 47.2781 11.0116 46.0254 11.0116C44.7727 11.0116 43.926 11.1279 43.4852 11.3605C43.0676 11.5698 42.8589 11.9419 42.8589 12.4767C42.8589 13.0116 43.0676 13.407 43.4852 13.6628C43.926 13.8953 45.0395 14.2558 46.8257 14.7442C48.6119 15.2325 49.9226 15.8023 50.7577 16.4535C51.5928 17.0814 52.0104 18.1628 52.0104 19.6977C52.0104 23.2093 49.853 24.9651 45.5382 24.9651C43.52 24.9651 41.351 24.593 39.0312 23.8488Z" fill="#000228"/>
<path d="M58.2738 8.0465L58.3434 9.05813C60.2224 8.19767 61.6955 7.76744 62.7626 7.76744C64.6416 7.76744 66.0219 8.32557 66.9034 9.44185C67.8081 10.5349 68.2605 12.2558 68.2605 14.6046V24.6163H64.6764V14.7093C64.6764 13.593 64.4792 12.7209 64.0849 12.093C63.6905 11.4651 63.0758 11.1512 62.2407 11.1512C61.4055 11.1512 60.1181 11.5581 58.3782 12.3721V24.6163H54.7941V8.0465H58.2738Z" fill="#000228"/>
<path d="M70.9746 24.6163V21.407H76.1594V11.2558H71.253V8.0465H79.7434V21.407H84.6498V24.6163H70.9746ZM77.76 5.63953C77.0641 5.63953 76.5073 5.43022 76.0898 5.01162C75.6954 4.56976 75.4982 3.99999 75.4982 3.30232C75.4982 2.60464 75.707 2.0465 76.1246 1.6279C76.5421 1.20929 77.0989 0.999992 77.7948 0.999992C78.5139 0.999992 79.0591 1.20929 79.4302 1.6279C79.8246 2.02325 80.0218 2.58139 80.0218 3.30232C80.0218 4.02325 79.8246 4.59302 79.4302 5.01162C79.0359 5.43022 78.4791 5.63953 77.76 5.63953Z" fill="#000228"/>
<path d="M87.5379 24.6163V1.4186H91.122V14.7093L93.4185 14.4651C94.7176 12.7907 95.8543 10.9767 96.8286 9.02325L97.3158 8.0465H101.213C99.7516 11.1395 98.1277 13.7209 96.3415 15.7907C97.8261 17.907 99.3224 20.407 100.83 23.2907L101.526 24.6163H97.455C96.3183 22.1512 95.0192 19.7907 93.5577 17.5349L91.122 17.7791V24.6163H87.5379Z" fill="#000228"/>
<path d="M106.954 24.6163V19.5581H112V24.6163H106.954Z" fill="#000228"/>
<path d="M5 24.6163V1.76743H11.9941C17.0513 1.76743 19.5798 3.74418 19.5798 7.69767C19.5798 8.97674 19.2551 10.0814 18.6055 11.0116C17.956 11.9419 17.0745 12.5232 15.961 12.7558C17.2601 12.9419 18.2692 13.5116 18.9883 14.4651C19.7306 15.3953 20.1134 16.6163 20.1366 18.1279C20.1366 22.4535 17.318 24.6163 11.681 24.6163H5ZM12.2029 21.4767C13.734 21.4767 14.8243 21.1395 15.4738 20.4651C16.1234 19.7907 16.4481 18.8953 16.4481 17.7791C16.4481 16.6395 16.0886 15.8139 15.3694 15.3023C14.6735 14.7907 13.56 14.5349 12.0289 14.5349H8.61886V21.4767H12.2029ZM16.0306 7.97674C16.0306 5.93023 14.7663 4.90697 12.2377 4.90697H8.61886V11.3953H11.9593C14.6735 11.3953 16.0306 10.2558 16.0306 7.97674Z" stroke="black" stroke-width="2" mask="url(#path-1-outside-1_2_713)"/>
<path d="M22.5376 16.3488C22.5376 13.5349 23.1639 11.407 24.4166 9.96511C25.6693 8.49999 27.4091 7.76744 29.6361 7.76744C31.8631 7.76744 33.5797 8.43022 34.786 9.75581C36.0155 11.0581 36.6534 12.9767 36.6998 15.5116L36.5607 18.093H26.4C26.6088 20.6046 27.8615 21.8605 30.158 21.8605C31.7587 21.8605 33.4521 21.5698 35.2384 20.9884L35.9691 24.0232C35.2268 24.2791 34.2641 24.5 33.081 24.686C31.8979 24.8953 30.9236 25 30.158 25C25.0777 25 22.5376 22.1163 22.5376 16.3488ZM29.7753 11.0116C28.685 11.0116 27.8615 11.3372 27.3047 11.9884C26.7712 12.6163 26.4696 13.6744 26.4 15.1628H32.8374C32.8374 12.3953 31.8167 11.0116 29.7753 11.0116Z" stroke="black" stroke-width="2" mask="url(#path-1-outside-1_2_713)"/>
<path d="M39.0312 23.8488L39.7967 20.6744C42.0005 21.3721 43.752 21.7209 45.0511 21.7209C46.3501 21.7209 47.2317 21.593 47.6956 21.3372C48.1596 21.1046 48.3915 20.686 48.3915 20.0814C48.3915 19.4767 48.1828 19.0465 47.7652 18.7907C47.3476 18.5349 46.5589 18.2674 45.399 17.9884C43.1024 17.4302 41.5018 16.8139 40.5971 16.1395C39.6924 15.4419 39.24 14.3139 39.24 12.7558C39.24 9.43023 41.3742 7.76744 45.6426 7.76744C47.4752 7.76744 49.5978 8.06976 52.0104 8.67441L51.3493 11.9884C49.0527 11.3372 47.2781 11.0116 46.0254 11.0116C44.7727 11.0116 43.926 11.1279 43.4852 11.3605C43.0676 11.5698 42.8589 11.9419 42.8589 12.4767C42.8589 13.0116 43.0676 13.407 43.4852 13.6628C43.926 13.8953 45.0395 14.2558 46.8257 14.7442C48.6119 15.2325 49.9226 15.8023 50.7577 16.4535C51.5928 17.0814 52.0104 18.1628 52.0104 19.6977C52.0104 23.2093 49.853 24.9651 45.5382 24.9651C43.52 24.9651 41.351 24.593 39.0312 23.8488Z" stroke="black" stroke-width="2" mask="url(#path-1-outside-1_2_713)"/>
<path d="M58.2738 8.0465L58.3434 9.05813C60.2224 8.19767 61.6955 7.76744 62.7626 7.76744C64.6416 7.76744 66.0219 8.32557 66.9034 9.44185C67.8081 10.5349 68.2605 12.2558 68.2605 14.6046V24.6163H64.6764V14.7093C64.6764 13.593 64.4792 12.7209 64.0849 12.093C63.6905 11.4651 63.0758 11.1512 62.2407 11.1512C61.4055 11.1512 60.1181 11.5581 58.3782 12.3721V24.6163H54.7941V8.0465H58.2738Z" stroke="black" stroke-width="2" mask="url(#path-1-outside-1_2_713)"/>
<path d="M70.9746 24.6163V21.407H76.1594V11.2558H71.253V8.0465H79.7434V21.407H84.6498V24.6163H70.9746ZM77.76 5.63953C77.0641 5.63953 76.5073 5.43022 76.0898 5.01162C75.6954 4.56976 75.4982 3.99999 75.4982 3.30232C75.4982 2.60464 75.707 2.0465 76.1246 1.6279C76.5421 1.20929 77.0989 0.999992 77.7948 0.999992C78.5139 0.999992 79.0591 1.20929 79.4302 1.6279C79.8246 2.02325 80.0218 2.58139 80.0218 3.30232C80.0218 4.02325 79.8246 4.59302 79.4302 5.01162C79.0359 5.43022 78.4791 5.63953 77.76 5.63953Z" stroke="black" stroke-width="2" mask="url(#path-1-outside-1_2_713)"/>
<path d="M87.5379 24.6163V1.4186H91.122V14.7093L93.4185 14.4651C94.7176 12.7907 95.8543 10.9767 96.8286 9.02325L97.3158 8.0465H101.213C99.7516 11.1395 98.1277 13.7209 96.3415 15.7907C97.8261 17.907 99.3224 20.407 100.83 23.2907L101.526 24.6163H97.455C96.3183 22.1512 95.0192 19.7907 93.5577 17.5349L91.122 17.7791V24.6163H87.5379Z" stroke="black" stroke-width="2" mask="url(#path-1-outside-1_2_713)"/>
<path d="M106.954 24.6163V19.5581H112V24.6163H106.954Z" stroke="black" stroke-width="2" mask="url(#path-1-outside-1_2_713)"/>
</g>
<defs>
<filter id="filter0_d_2_713" x="0" y="-7.62939e-06" width="117" height="34" filterUnits="userSpaceOnUse" color-interpolation-filters="sRGB">
<feFlood flood-opacity="0" result="BackgroundImageFix"/>
<feColorMatrix in="SourceAlpha" type="matrix" values="0 0 0 0 0 0 0 0 0 0 0 0 0 0 0 0 0 0 127 0" result="hardAlpha"/>
<feOffset dy="4"/>
<feGaussianBlur stdDeviation="2"/>
<feComposite in2="hardAlpha" operator="out"/>
<feColorMatrix type="matrix" values="0 0 0 0 0 0 0 0 0 0 0 0 0 0 0 0 0 0 0.25 0"/>
<feBlend mode="normal" in2="BackgroundImageFix" result="effect1_dropShadow_2_713"/>
<feBlend mode="normal" in="SourceGraphic" in2="effect1_dropShadow_2_713" result="shape"/>
</filter>
</defs>
</svg>
