<svg width="48" height="48" viewBox="0 0 48 48" fill="none" xmlns="http://www.w3.org/2000/svg">
<path d="M35 22C27.832 22 22 27.832 22 35C22 42.168 27.832 48 35 48C42.168 48 48 42.168 48 35C48 27.832 42.168 22 35 22ZM34.75 33.5H35.25C37.318 33.5 39 35.182 39 37.25C39 38.876 37.952 40.252 36.5 40.77V41.5C36.5 42.328 35.828 43 35 43C34.172 43 33.5 42.328 33.5 41.5V41H32.5C31.672 41 31 40.328 31 39.5C31 38.672 31.672 38 32.5 38H35.25C35.664 38 36 37.664 36 37.25C36 36.836 35.664 36.5 35.25 36.5H34.75C32.682 36.5 31 34.818 31 32.75C31 31.124 32.048 29.748 33.5 29.23V28.5C33.5 27.672 34.172 27 35 27C35.828 27 36.5 27.672 36.5 28.5V29H37.5C38.328 29 39 29.672 39 30.5C39 31.328 38.328 32 37.5 32H34.75C34.336 32 34 32.336 34 32.75C34 33.164 34.336 33.5 34.75 33.5Z" fill="#F7A804"/>
<path d="M34 11.916V4.00004C34 2.89404 33.104 2.00004 32 2.00004C30.896 2.00004 30 2.89404 30 4.00004V8.00404L22.398 0.570035C21.62 -0.191965 20.378 -0.191965 19.602 0.570035L0.878 18.874C0.32 19.438 0 20.212 0 21C0 22.654 1.346 24 3 24H6V35C6 37.758 8.244 40 11 40H16C17.104 40 18 39.106 18 38C18 36.894 17.104 36 16 36H11C10.448 36 10 35.55 10 35V22C10 20.894 9.104 20 8 20H5.446L21 4.79604L34.102 17.608C34.894 18.382 36.158 18.368 36.93 17.576C37.702 16.786 37.688 15.52 36.898 14.748L34 11.916Z" fill="#3B3C45"/>
</svg>
